<svg width="42" height="43" viewBox="0 0 42 43" fill="none" xmlns="http://www.w3.org/2000/svg">
<g filter="url(#filter0_ddd_287_86)">
<circle cx="21" cy="20" r="16" fill="white"/>
<path fill-rule="evenodd" clip-rule="evenodd" d="M14.3335 20.0002C14.3335 19.632 14.632 19.3335 15.0002 19.3335H27.0002C27.3684 19.3335 27.6668 19.632 27.6668 20.0002C27.6668 20.3684 27.3684 20.6668 27.0002 20.6668H15.0002C14.632 20.6668 14.3335 20.3684 14.3335 20.0002Z" fill="url(#paint0_linear_287_86)"/>
<path fill-rule="evenodd" clip-rule="evenodd" d="M14.3335 16.0002C14.3335 15.632 14.632 15.3335 15.0002 15.3335H27.0002C27.3684 15.3335 27.6668 15.632 27.6668 16.0002C27.6668 16.3684 27.3684 16.6668 27.0002 16.6668H15.0002C14.632 16.6668 14.3335 16.3684 14.3335 16.0002Z" fill="url(#paint1_linear_287_86)"/>
<path fill-rule="evenodd" clip-rule="evenodd" d="M14.3335 24.0002C14.3335 23.632 14.632 23.3335 15.0002 23.3335H27.0002C27.3684 23.3335 27.6668 23.632 27.6668 24.0002C27.6668 24.3684 27.3684 24.6668 27.0002 24.6668H15.0002C14.632 24.6668 14.3335 24.3684 14.3335 24.0002Z" fill="url(#paint2_linear_287_86)"/>
</g>
<defs>
<filter id="filter0_ddd_287_86" x="0" y="0" width="42" height="43" filterUnits="userSpaceOnUse" color-interpolation-filters="sRGB">
<feFlood flood-opacity="0" result="BackgroundImageFix"/>
<feColorMatrix in="SourceAlpha" type="matrix" values="0 0 0 0 0 0 0 0 0 0 0 0 0 0 0 0 0 0 127 0" result="hardAlpha"/>
<feOffset dy="1"/>
<feGaussianBlur stdDeviation="2.5"/>
<feColorMatrix type="matrix" values="0 0 0 0 0.748125 0 0 0 0 0.767812 0 0 0 0 0.7875 0 0 0 0.24 0"/>
<feBlend mode="normal" in2="BackgroundImageFix" result="effect1_dropShadow_287_86"/>
<feColorMatrix in="SourceAlpha" type="matrix" values="0 0 0 0 0 0 0 0 0 0 0 0 0 0 0 0 0 0 127 0" result="hardAlpha"/>
<feOffset dy="3"/>
<feGaussianBlur stdDeviation="2"/>
<feColorMatrix type="matrix" values="0 0 0 0 0.748125 0 0 0 0 0.767812 0 0 0 0 0.7875 0 0 0 0.18 0"/>
<feBlend mode="normal" in2="effect1_dropShadow_287_86" result="effect2_dropShadow_287_86"/>
<feColorMatrix in="SourceAlpha" type="matrix" values="0 0 0 0 0 0 0 0 0 0 0 0 0 0 0 0 0 0 127 0" result="hardAlpha"/>
<feOffset dy="2"/>
<feGaussianBlur stdDeviation="2"/>
<feColorMatrix type="matrix" values="0 0 0 0 0.748125 0 0 0 0 0.767812 0 0 0 0 0.7875 0 0 0 0.2 0"/>
<feBlend mode="normal" in2="effect2_dropShadow_287_86" result="effect3_dropShadow_287_86"/>
<feBlend mode="normal" in="SourceGraphic" in2="effect3_dropShadow_287_86" result="shape"/>
</filter>
<linearGradient id="paint0_linear_287_86" x1="20.76" y1="16.8543" x2="19.4464" y2="27.2731" gradientUnits="userSpaceOnUse">
<stop stop-color="#F83600"/>
<stop offset="1" stop-color="#F9D423"/>
</linearGradient>
<linearGradient id="paint1_linear_287_86" x1="20.76" y1="12.8543" x2="19.4464" y2="23.2731" gradientUnits="userSpaceOnUse">
<stop stop-color="#F83600"/>
<stop offset="1" stop-color="#F9D423"/>
</linearGradient>
<linearGradient id="paint2_linear_287_86" x1="20.76" y1="20.8543" x2="19.4463" y2="31.2731" gradientUnits="userSpaceOnUse">
<stop stop-color="#F83600"/>
<stop offset="1" stop-color="#F9D423"/>
</linearGradient>
</defs>
</svg>
